<?xml version="1.0" encoding="utf-8"?>
<svg version="1.1" xmlns="http://www.w3.org/2000/svg" xmlns:xlink="http://www.w3.org/1999/xlink" x="0" y="0" viewBox="0 0 512 512" xml:space="preserve">
<g>
  <path style="fill: #2b3b49" d="M476,109.792c13.234,0,24,10.766,24,24v244.416c0,13.234-10.766,24-24,24H36
    c-13.234,0-24-10.766-24-24V133.792c0-13.234,10.766-24,24-24H476 M476,97.792H36c-19.8,0-36,16.2-36,36v244.416
    c0,19.8,16.2,36,36,36h440c19.8,0,36-16.2,36-36V133.792C512,113.992,495.8,97.792,476,97.792L476,97.792z"/>
</g>
<g>
  <path style="fill: #2b3b49" d="M59.157,156h81.276l31.344,121.692L202.896,156h81.226v200h-50.614V203.476L194.51,356h-45.814L109.77,203.476V356H59.157V156z"/>
  <path style="fill: #2b3b49" d="M413.729,279.634h47.114l-76.236,76.236l-76.236-76.236h47.114V156.299h58.244V279.634z"/>
</g>
</svg>
