<?xml version="1.0" encoding="utf-8"?>
<svg version="1.1" xmlns="http://www.w3.org/2000/svg" xmlns:xlink="http://www.w3.org/1999/xlink" x="0" y="0" viewBox="0 0 512 512" xml:space="preserve">
<g>
  <path style="fill: #2b3b49" d="M36,411.208c-18.196,0-33-14.804-33-33V133.792c0-18.196,14.804-33,33-33h440c18.196,0,33,14.804,33,33v244.416c0,18.196-14.804,33-33,33H36z"/>
</g>
<g>
  <path style="fill: #fff" d="M59.157,156h81.276l31.344,121.692L202.896,156h81.226v200h-50.614V203.476L194.51,356h-45.814L109.77,203.476V356H59.157V156z"/>
  <path style="fill: #fff" d="M413.729,279.634h47.114l-76.236,76.236l-76.236-76.236h47.114V156.299h58.244V279.634z"/>
</g>
</svg>
