<?xml version="1.0" encoding="utf-8"?>
<!-- Generator: Adobe Illustrator 19.0.0, SVG Export Plug-In . SVG Version: 6.00 Build 0)  -->
<svg version="1.1" id="图层_1" xmlns="http://www.w3.org/2000/svg" xmlns:xlink="http://www.w3.org/1999/xlink" x="0px" y="0px"
	 viewBox="-305 357 208 208" style="enable-background:new -305 357 208 208;" xml:space="preserve">
<style type="text/css">
	.st0{fill:none;stroke:#000000;stroke-width:10;}
</style>
<path class="st0" d="M-290,402h178c5.5,0,10,4.5,10,10v98c0,5.5-4.5,10-10,10h-178c-5.5,0-10-4.5-10-10v-98
	C-300,406.5-295.5,402-290,402z"/>
<path d="M-275,495v-68h20l20,25l20-25h20v68h-20v-39l-20,25l-20-25v39H-275z M-150,495l-30-33h20v-35h20v35h20L-150,495z"/>
</svg>
