<?xml version="1.0" encoding="utf-8"?>
<!-- Generator: Adobe Illustrator 19.0.0, SVG Export Plug-In . SVG Version: 6.00 Build 0)  -->
<svg version="1.1" id="图层_1" xmlns="http://www.w3.org/2000/svg" xmlns:xlink="http://www.w3.org/1999/xlink" x="0px" y="0px"
	 viewBox="-305 357 208 208" style="enable-background:new -305 357 208 208;" xml:space="preserve">
<style type="text/css">
	.st0{fill:#FFFFFF;filter:url(#Adobe_OpacityMaskFilter);}
	.st1{mask:url(#a);}
</style>
<defs>
	<filter id="Adobe_OpacityMaskFilter" filterUnits="userSpaceOnUse" x="-305" y="397" width="208" height="128">
		<feColorMatrix  type="matrix" values="1 0 0 0 0  0 1 0 0 0  0 0 1 0 0  0 0 0 1 0"/>
	</filter>
</defs>
<mask maskUnits="userSpaceOnUse" x="-305" y="397" width="208" height="128" id="a">
	<rect x="-305" y="397" class="st0" width="208" height="128"/>
	<path d="M-275,495v-68h20l20,25l20-25h20v68h-20v-39l-20,25l-20-25v39H-275z M-150,495l-30-33h20v-35h20v35h20L-150,495z"/>
</mask>
<path class="st1" d="M-290,397h178c8.3,0,15,6.7,15,15v98c0,8.3-6.7,15-15,15h-178c-8.3,0-15-6.7-15-15v-98
	C-305,403.7-298.3,397-290,397z"/>
</svg>
